PathFileType	4	(X/Y/Z)	E:\Marcel_BSc\Ayumi_22_01_2025\22-01-2025\static_00.trc
DataRate	CameraRate	NumFrames	NumMarkers	Units	OrigDataRate	OrigDataStartFrame	OrigNumFrames
200.0	200.0	4	59	mm	200.0	272	352	
Frame#	Time	FHD			LBHD			RBHD			RBAR			LBAR			RASI			RSACR			LSACR			LASI			USACR			C7			CLAV			T10			RSHO			LSHO			LTHI1			LTHI3			LTHI2			LLFC			LMFC			LTIB1			LTIB2			LTIB3			LMMAL			LLMAL			LHEE			LMT1			LMT5			LMT3			RTHI1			RTHI2			RTHI3			RLFC			RMFC			RTIB1			RTIB3			RTIB2			RLMAL			RMMAL			RHEE			RMT5			RMT1			RMT3			LMEP			LLEP			LDUPA			LMUPA			LUUPA			LUL			LRAD			LRFIN			RUL			RRAD			RUFIN			RMEP			RLEP			RMUPA			RDUPA			RUUPA			
		X1	Y1	Z1	X2	Y2	Z2	X3	Y3	Z3	X4	Y4	Z4	X5	Y5	Z5	X6	Y6	Z6	X7	Y7	Z7	X8	Y8	Z8	X9	Y9	Z9	X10	Y10	Z10	X11	Y11	Z11	X12	Y12	Z12	X13	Y13	Z13	X14	Y14	Z14	X15	Y15	Z15	X16	Y16	Z16	X17	Y17	Z17	X18	Y18	Z18	X19	Y19	Z19	X20	Y20	Z20	X21	Y21	Z21	X22	Y22	Z22	X23	Y23	Z23	X24	Y24	Z24	X25	Y25	Z25	X26	Y26	Z26	X27	Y27	Z27	X28	Y28	Z28	X29	Y29	Z29	X30	Y30	Z30	X31	Y31	Z31	X32	Y32	Z32	X33	Y33	Z33	X34	Y34	Z34	X35	Y35	Z35	X36	Y36	Z36	X37	Y37	Z37	X38	Y38	Z38	X39	Y39	Z39	X40	Y40	Z40	X41	Y41	Z41	X42	Y42	Z42	X43	Y43	Z43	X44	Y44	Z44	X45	Y45	Z45	X46	Y46	Z46	X47	Y47	Z47	X48	Y48	Z48	X49	Y49	Z49	X50	Y50	Z50	X51	Y51	Z51	X52	Y52	Z52	X53	Y53	Z53	X54	Y54	Z54	X55	Y55	Z55	X56	Y56	Z56	X57	Y57	Z57	X58	Y58	Z58	X59	Y59	Z59	
272	1.35	107.04692	1610.8811	-966.69128	125.4867	1594.0225	-906.35748	143.73834	1583.285	-1037.4519				1040.9783	20.043049	-2031.4866	162.4325	927.26385	-1103.0388	322.4631	958.95331	-1015.5118	319.59937	960.58002	-941.52869	148.99684	912.39526	-865.48853	314.59439	970.43555	-979.46326	297.12527	1401.4218	-963.20721	162.80716	1329.0748	-980.56091	319.75668	1117.7184	-973.60217	236.29726	1406.7721	-1111.9293	215.45346	1398.8431	-830.48615	237.20705	606.57141	-807.61725	261.68332	546.09106	-818.90839	211.00578	545.81384	-818.00073	229.74583	449.34647	-840.80219	242.27724	442.22241	-939.39166	256.58017	233.58536	-819.54724	306.8378	232.48915	-815.53223	280.05844	173.49872	-825.76636	284.29636	71.824585	-914.69366	297.89362	69.609406	-843.41302	340.99374	33.966682	-881.6994	143.87596	39.186153	-873.67377	169.43489	26.82527	-796.97577	144.84943	37.249992	-837.70923	257.59653	608.0481	-1156.6414	230.21255	548.78821	-1149.3912	281.45844	547.71045	-1147.1976	240.2626	455.06757	-1125.5017	247.85756	449.3327	-1024.276	271.42212	276.94156	-1159.8231	294.3212	215.33182	-1155.5613	321.91916	274.8027	-1160.3536	307.62396	73.588989	-1134.9156	276.81912	75.63797	-1063.9563	351.59213	28.429377	-1095.3418	178.76866	29.33988	-1179.4187	151.09694	37.700996	-1115.5487	156.17087	36.003727	-1148.2687	202.7094	1278.4656	-580.62567	253.37994	1329.7156	-563.02234	252.46242	1361.7999	-644.0282	282.29208	1322.2716	-639.62262	268.54193	1367.9069	-703.87317	231.80345	1334.1099	-326.28354	167.87839	1352.1307	-318.97754	179.27763	1348.4564	-244.71088	283.0144	1341.4274	-1611.0035	223.12213	1357.5638	-1611.8612	222.21152	1354.5696	-1686.0729	264.35651	1278.9036	-1373.9727	303.49271	1338.875	-1376.8805	310.02386	1362.6471	-1216.9186	313.02936	1351.1501	-1277.1813	328.25043	1317.7675	-1207.1908
273	1.355	107.04679	1610.9456	-966.68195	125.54158	1594.0001	-906.38849	143.77139	1583.2827	-1037.4673				1040.9913	20.030514	-2031.5424	162.44258	927.24969	-1103.022	322.44638	958.98987	-1015.4885	319.58157	960.5755	-941.51947	148.97902	912.40106	-865.47858	314.5943	970.41846	-979.46069	297.15561	1401.4027	-963.20392	162.82706	1329.0864	-980.55261	319.7612	1117.7014	-973.58136	236.326	1406.7731	-1111.9171	215.48184	1398.8352	-830.48541	237.18665	606.55908	-807.59039	261.67337	546.08215	-818.88971	211.02408	545.81329	-817.97992	229.74768	449.35092	-840.78284	242.26834	442.17291	-939.3985	256.57602	233.5712	-819.54346	306.84116	232.46761	-815.51263	280.07437	173.50426	-825.75653	284.34521	71.791321	-914.672	297.87308	69.609047	-843.39911	340.99323	33.975201	-881.68896	143.86719	39.170364	-873.67615	169.43062	26.826696	-796.97656	144.84073	37.247116	-837.72455	257.58221	608.05841	-1156.6169	229.71082	549.39258	-1149.1024	281.46301	547.67578	-1147.1918	240.25142	455.05124	-1125.5112	247.85556	449.32574	-1024.2551	271.38052	276.98688	-1159.8077	294.32056	215.31625	-1155.5354	322.03833	274.93994	-1160.5244	307.60114	73.604683	-1134.9202	276.81915	75.636215	-1063.9528	351.58578	28.429548	-1095.3411	178.76833	29.345577	-1179.4293	151.10045	37.705303	-1115.5382	156.15982	36.007465	-1148.2773	202.72488	1278.4874	-580.6192	253.40309	1329.7089	-563.01575	252.4697	1361.8129	-644.02966	282.31015	1322.2957	-639.61615	268.5545	1367.9337	-703.85541	231.82726	1334.1222	-326.26749	168.21893	1352.0344	-318.49921	179.30864	1348.5148	-244.68443	283.06128	1341.4127	-1610.988	223.15877	1357.5745	-1611.8228	222.26335	1354.5221	-1686.092	264.39499	1278.8896	-1373.9796	303.50281	1338.8989	-1376.8645	309.74225	1362.6896	-1216.9636	313.04861	1351.161	-1277.1643	328.25616	1317.7791	-1207.1776
274	1.36	107.12	1610.9365	-966.72186	125.62103	1593.9952	-906.35779	143.83711	1583.2821	-1037.49				1041.0067	20.021967	-2031.5704	162.43394	927.2323	-1103.0333	322.4288	958.94354	-1015.4793	319.58551	960.58075	-941.49811	148.95709	912.40839	-865.46704	314.56949	970.43652	-979.42737	297.16904	1401.4073	-963.1911	162.85567	1329.1071	-980.52533	319.76215	1117.7012	-973.56641	236.36531	1406.7562	-1111.9147	215.5197	1398.8469	-830.46277	237.17976	606.55298	-807.58466	261.68546	546.08826	-818.87738	210.99048	545.80768	-817.98578	229.7408	449.33423	-840.77423	242.25778	442.16736	-939.38953	256.57858	233.58748	-819.55536	306.84769	232.4698	-815.50513	280.07184	173.49425	-825.75122	284.29977	71.816917	-914.6875	297.88391	69.6035	-843.39655	340.98532	33.982048	-881.67981	143.86682	39.170601	-873.66632	169.41966	26.868462	-796.95966	144.84277	37.265896	-837.70233	257.54321	608.05634	-1156.63	229.71962	549.32666	-1149.1316	281.44052	547.69543	-1147.166	240.23312	455.0546	-1125.5043	247.85535	449.3125	-1024.2461	271.38937	276.98227	-1159.7778	294.31409	215.31062	-1155.5352	321.89133	274.79718	-1160.3412	307.61099	73.59964	-1134.8999	276.81784	75.637169	-1063.9573	351.59216	28.420689	-1095.3275	178.76218	29.342085	-1179.4264	151.09221	37.709427	-1115.5225	156.1552	36.017975	-1148.2601	202.74164	1278.5156	-580.61725	253.42122	1329.7574	-563.00275	252.49422	1361.8286	-644.01385	282.33115	1322.3041	-639.60278	268.59451	1367.9825	-703.84344	231.87529	1334.1681	-326.26181	168.25017	1352.0995	-318.48737	179.40482	1348.5557	-244.65646	283.10068	1341.4034	-1610.9883	223.19751	1357.5616	-1611.8308	222.29614	1354.5179	-1686.0836	264.40182	1278.887	-1373.965	303.53189	1338.8931	-1376.8579	309.7825	1362.6641	-1216.9677	313.07706	1351.1539	-1277.1432	328.27228	1317.7732	-1207.1633
275	1.365	107.1686	1610.934	-966.76697	125.66751	1593.9879	-906.39893	143.90715	1583.2804	-1037.5253				1040.9983	20.038868	-2031.5122	162.4335	927.20575	-1103.0367	322.41373	958.93756	-1015.4789	319.59354	960.56378	-941.48517	148.94945	912.41577	-865.44653	314.48032	970.56427	-979.3692	297.1969	1401.4069	-963.19403	162.8694	1329.1134	-980.5307	319.78641	1117.6534	-973.54663	236.4229	1406.7455	-1111.9115	215.55356	1398.8359	-830.47638	237.18338	606.56531	-807.56451	261.6615	546.09314	-818.86981	210.98862	545.81781	-817.97064	229.73648	449.3497	-840.7652	242.24715	442.18048	-939.37024	256.70709	233.69875	-818.82837	306.8121	232.49823	-815.50708	280.07123	173.5042	-825.74261	284.33954	71.815796	-914.67316	297.89828	69.601234	-843.39948	340.9953	33.969318	-881.6991	143.86449	39.179264	-873.6748	169.43282	26.836361	-796.97498	144.85124	37.258476	-837.71259	257.55533	608.03888	-1156.5958	230.07495	548.849	-1149.2998	281.39789	547.74615	-1147.1643	240.20714	455.07535	-1125.4799	247.85442	449.3085	-1024.2249	271.36411	276.98468	-1159.7738	294.2941	215.35658	-1155.5419	322.03931	274.94623	-1160.4928	307.60721	73.601219	-1134.906	276.81653	75.634445	-1063.9469	351.58252	28.416176	-1095.3236	178.76295	29.355614	-1179.4185	151.09494	37.718918	-1115.5275	156.16406	36.002308	-1148.2678	202.75325	1278.5424	-580.60339	253.4649	1329.769	-563.0152	252.51889	1361.863	-644.02057	282.34738	1322.3209	-639.60327	268.58649	1367.9497	-703.86108	231.90698	1334.2368	-326.26102	168.29527	1352.1603	-318.47922	179.3947	1348.6233	-244.66507	283.15207	1341.4246	-1610.9574	223.25417	1357.5586	-1611.8379	222.33806	1354.5188	-1686.0901	264.4306	1278.8893	-1373.9601	303.56253	1338.8843	-1376.849	309.81238	1362.6439	-1216.9609	313.1059	1351.1353	-1277.1418	328.2951	1317.7537	-1207.1594
